<svg width="38" height="38" viewBox="0 0 38 38" fill="none" xmlns="http://www.w3.org/2000/svg">
<path d="M37.3333 32.1481C37.3333 35.0124 35.0124 37.3333 32.1481 37.3333H5.18518C2.32193 37.3333 0 35.0124 0 32.1481V5.18518C0 2.32089 2.32193 0 5.18518 0H32.1481C35.0124 0 37.3333 2.32089 37.3333 5.18518V32.1481Z" fill="#BDB19D"/>
<path d="M27.3852 20.533H24.1108V32.6663H19.2497V20.533H16.333V16.7997H19.2497V14.5503C19.2516 11.2762 20.6681 9.33301 24.6863 9.33301H27.9997V13.0663H25.7762C24.2119 13.0663 24.1108 13.6263 24.1108 14.6745V16.7997H27.9997L27.3852 20.533Z" fill="#ECE9E1"/>
</svg>
