<svg width="40" height="39" viewBox="0 0 40 39" fill="none" xmlns="http://www.w3.org/2000/svg">
<path d="M27.9378 3.20833C30.0633 3.20833 32.0786 4.05052 33.6025 5.56445C35.1265 7.07839 35.9587 9.10365 35.9587 11.2292V27.2708C35.9587 29.3964 35.1165 31.4116 33.6025 32.9355C32.0886 34.4595 30.0633 35.2917 27.9378 35.2917H11.8962C9.77064 35.2917 7.7554 34.4495 6.23145 32.9355C4.70749 31.4216 3.87533 29.3964 3.87533 27.2708V11.2292C3.87533 9.10365 4.71751 7.08841 6.23145 5.56445C7.74538 4.04049 9.77064 3.20833 11.8962 3.20833H27.9378ZM27.9378 0H11.8962C5.72012 0 0.666992 5.05312 0.666992 11.2292V27.2708C0.666992 33.4469 5.72012 38.5 11.8962 38.5H27.9378C34.1139 38.5 39.167 33.4469 39.167 27.2708V11.2292C39.167 5.05312 34.1139 0 27.9378 0Z" fill="#B6AA93"/>
<path d="M30.3438 11.2295C29.0103 11.2295 27.9375 10.1567 27.9375 8.82324C27.9375 7.48978 29.0103 6.41699 30.3438 6.41699C31.6672 6.41699 32.75 7.48978 32.75 8.82324C32.75 10.1567 31.6672 11.2295 30.3438 11.2295Z" fill="#B6AA93"/>
<path d="M19.917 12.8333C23.4562 12.8333 26.3337 15.7108 26.3337 19.25C26.3337 22.7892 23.4562 25.6667 19.917 25.6667C16.3778 25.6667 13.5003 22.7892 13.5003 19.25C13.5003 15.7108 16.3778 12.8333 19.917 12.8333ZM19.917 9.625C14.6032 9.625 10.292 13.9362 10.292 19.25C10.292 24.5638 14.6032 28.875 19.917 28.875C25.2308 28.875 29.542 24.5638 29.542 19.25C29.542 13.9362 25.2308 9.625 19.917 9.625Z" fill="#B6AA93"/>
</svg>
