<svg width="43" height="35" viewBox="0 0 43 35" fill="none" xmlns="http://www.w3.org/2000/svg">
<path d="M42.9349 4.39883C41.38 5.08921 39.7089 5.55376 37.9539 5.76669C39.7411 4.68918 41.1219 2.99226 41.7671 0.966295C40.0896 1.95992 38.2313 2.68256 36.257 3.06969C34.6762 1.38568 32.4244 0.333984 29.9274 0.333984C25.1399 0.333984 21.2558 4.21817 21.2558 9.00566C21.2558 9.68313 21.3332 10.3477 21.4816 10.98C14.2746 10.6187 7.88693 7.16035 3.60917 1.91476C2.86072 3.19873 2.43488 4.68918 2.43488 6.28286C2.43488 9.28955 3.96403 11.9414 6.29326 13.4963C4.86733 13.4512 3.53174 13.0641 2.3639 12.4124C2.3639 12.4511 2.3639 12.4834 2.3639 12.5221C2.3639 16.7224 5.35124 20.2259 9.31931 21.026C8.59022 21.226 7.82887 21.3292 7.03525 21.3292C6.47392 21.3292 5.93194 21.2776 5.40286 21.1744C6.50618 24.6134 9.70644 27.1297 13.5003 27.1942C10.5388 29.5235 6.79652 30.9042 2.73168 30.9042C2.02839 30.9042 1.34447 30.8655 0.666992 30.7881C4.49956 33.2463 9.06122 34.6787 13.9584 34.6787C29.9081 34.6787 38.6314 21.4647 38.6314 10.0122C38.6314 9.63152 38.6249 9.25729 38.6056 8.88307C40.3025 7.67007 41.7736 6.14091 42.9349 4.39883Z" fill="#B6AA93"/>
</svg>
